<svg xmlns="http://www.w3.org/2000/svg" xmlns:xlink="http://www.w3.org/1999/xlink" width="36" height="36" viewBox="0 0 36 36">
  <defs>
    <path id="ico-loggi-a" d="M32.6308516,14.0779257 C32.9764796,14.5261236 33.2824987,15.0035134 33.5454545,15.5047062 C33.4769974,15.9270025 33.32125,16.3303882 33.0881531,16.689117 C32.9143785,17.004655 32.2238534,18.262234 31.6567996,18.6189291 C30.198254,19.3912862 28.6663402,20.016307 27.0837851,20.484719 C26.3413218,20.7086282 25.6616117,21.1032986 25.0990968,21.6371187 C24.4497287,22.359655 17.7822736,29.0545482 17.7822736,29.0545482 L16.7533453,28.7573022 C16.7533453,28.7573022 18.4773718,26.7406028 17.9560482,24.1842877 C17.7310568,23.0044148 17.2066884,21.902139 16.4332343,20.9831776 C17.4749344,22.7032019 17.6115017,24.8234089 16.7990755,26.6628616 C16.3904255,27.4696499 15.8262701,28.1876658 15.1390712,28.7755943 C14.7137809,29.1094243 14.5217143,29.1139974 14.7960951,29.1963116 L18.1618338,30.2023748 C19.7806809,30.6596763 20.1693872,31.9401203 20.119084,32.4477249 C20.119084,32.6489376 19.9910396,33.1291041 19.9910396,33.1291041 L13.1223718,30.9980793 C13.1223718,30.9980793 8.45332404,29.5255687 8.21095428,29.5027036 C7.64902333,29.4069546 7.20484585,28.9736996 7.09513874,28.4143261 C7.09513874,27.9204406 7.13629587,27.1887583 6.98081338,26.9098044 C5.86518783,25.7643157 4.82059429,24.551732 3.85287147,23.2788309 C2.73762497,21.7924144 2.26039444,19.9229872 2.52669727,18.0838864 C3.0114368,14.8141811 6.96709433,12.1755517 10.0813172,12.7060214 C11.8602198,13.0124133 14.3799508,13.7349496 22.2684008,15.125146 C22.1810975,13.8668508 22.5299237,12.6168904 23.2561719,11.5856328 C22.9955101,11.2426567 21.8842676,10.3600649 19.7120857,10.7670632 C18.2616905,11.032363 16.7838202,11.1153204 15.3128458,11.014006 C13.6528415,10.9179727 7.93657341,8.87840825 7.33750851,8.7046337 C6.4823548,8.46683695 7.05398161,8.00038947 7.66219254,7.74430066 C8.12726466,7.54167905 8.60365142,7.36608778 9.08897306,7.21840399 C10.9492989,8.11749496 12.8718752,8.88163498 14.8418253,9.50491123 C16.4131945,9.85919342 18.0309434,9.96107456 19.6343445,9.80673019 C21.8293914,9.66953976 23.4711036,10.1634253 23.900967,10.7762093 C23.6631702,10.4012221 22.4924785,9.37229381 20.0824999,9.40430492 C18.4754802,9.43242204 16.8713528,9.2572587 15.3082728,8.88298126 C14.2610524,8.64518451 11.8465008,7.32358332 9.92583471,6.22605985 C8.61337955,5.47608547 7.52957512,4.8541555 7.27805932,4.71239205 C6.51893892,4.35569692 6.98081338,4.1590573 7.67133857,3.99442877 C9.28947433,3.55220192 10.9559395,3.31106365 12.6330593,3.2764655 C16.0628202,3.1804322 19.4377048,4.95933483 21.376663,5.77333141 C23.3156211,6.58732799 27.7194341,9.74270799 27.7194341,9.74270799 L27.9069277,9.87532541 C28.5683113,10.1249188 29.2155917,10.4103939 29.8458858,10.7304791 C31.0988918,11.4895995 32.6308516,14.0779257 32.6308516,14.0779257 Z M10.4974615,31.3639205 C10.6732643,31.291754 10.8704205,31.291754 11.0462233,31.3639205 L12.7565307,31.9035362 C12.7565307,31.9035362 11.0507963,32.8181391 10.5431917,32.5711963 C10.3052273,32.4699902 10.1471031,32.2404729 10.137315,31.9820664 C10.1275269,31.72366 10.2678352,31.4828384 10.4974615,31.3639205 L10.4974615,31.3639205 Z"/>
  </defs>
  <g fill="none" fill-rule="evenodd">
    <rect width="36" height="36"/>
    <use fill="currentColor" xlink:href="#ico-loggi-a"/>
  </g>
</svg>
